<?xml version="1.0" encoding="utf-8"?>
<!-- Generator: Adobe Illustrator 24.1.1, SVG Export Plug-In . SVG Version: 6.00 Build 0)  -->
<svg version="1.1" id="Layer_1" xmlns="http://www.w3.org/2000/svg" xmlns:xlink="http://www.w3.org/1999/xlink" x="0px" y="0px"
	 viewBox="0 0 512 512" style="enable-background:new 0 0 512 512;" xml:space="preserve">
<style type="text/css">
	.st0{fill-rule:evenodd;clip-rule:evenodd;}
</style>
<g>
	<path class="st0" d="M172.1,465c-4,4-8.9,7-14.2,8.8l-109,36.3c-19,6.4-39.6-3.9-46-22.9c-2.5-7.5-2.5-15.6,0-23l36.3-109
		c1.8-5.3,4.8-10.2,8.8-14.2L331.3,57.6c28.4-28.4,74.4-28.4,102.8,0l21.3,21.3c28.4,28.4,28.4,74.4,0,102.8L172.1,465z M73.7,366.6
		L357,83.3c14.2-14.2,37.2-14.2,51.4,0l21.3,21.3c14.2,14.2,14.2,37.2,0,51.4L146.4,439.3l-109,36.3L73.7,366.6z"/>
	<path class="st0" d="M322.8,59.8c-7.1-7.1-18.6-7.1-25.7,0l0,0L177.5,179.6c-7.1,7.1-18.6,7.1-25.7,0c-7.1-7.1-7.1-18.6,0-25.7
		L271.4,34.2c21.3-21.3,55.8-21.3,77.1,0l0,0l10.6,10.6c7.1,7.1,7.1,18.6,0,25.7c-7.1,7.1-18.6,7.1-25.7,0L322.8,59.8L322.8,59.8z"
		/>
	<path d="M447.9,10.6c14.2-14.2,37.2-14.2,51.4,0l1.1,1.1c13.7,13.8,14.2,35.9,1.1,50.3l-46,50.1l-54.5-54.5L447.9,10.6z"/>
</g>
</svg>
