<?xml version="1.0" encoding="utf-8"?>
<!-- Generator: Adobe Illustrator 24.1.1, SVG Export Plug-In . SVG Version: 6.00 Build 0)  -->
<svg version="1.1" id="Layer_1" xmlns="http://www.w3.org/2000/svg" xmlns:xlink="http://www.w3.org/1999/xlink" x="0px" y="0px"
	 viewBox="0 0 512 512" style="enable-background:new 0 0 512 512;" xml:space="preserve">
<g>
	<path d="M448.51,242.91c-40.66-40.66-98.59-62.94-165.42-66.84v-59.6c0-8.91-6.68-17.27-15.04-20.61s-18.38-1.67-25.06,5.01
		L105.41,240.13c-8.35,8.91-8.91,22.83,0,31.19l137.02,139.24c6.12,6.68,17.26,8.35,25.62,5.01c8.35-3.35,15.04-11.7,15.04-20.61
		v-60.15c44.56-1.12,149.27,3.34,187.14,71.29c3.9,7.24,11.14,11.14,18.94,11.14c1.67,0,3.34,0,5.57-0.55
		c10.02-2.78,17.26-11.14,17.26-21.72C511.45,391.63,512,306.41,448.51,242.91z M256.91,291.37c-11.14,1.11-18.38,10.58-18.38,22.28
		v26.73l-83.55-84.66l83.55-84.66v26.73c0,12.25,8.91,22.28,21.16,22.28c119.75,0,170.44,57.37,192.16,106.39
		C373.32,279.67,263.04,290.81,256.91,291.37z M174.47,379.37c8.35,8.91,8.35,22.83,0,31.75c-4.45,4.45-10.02,6.68-15.59,6.68
		c-5.57,0-11.7-2.22-15.59-6.68L6.27,271.88c-8.35-8.91-8.35-22.84,0-31.19l137.02-139.24c8.91-8.91,22.83-8.91,31.19,0
		c8.91,8.91,8.91,22.84,0,31.75L52.49,255.72L174.47,379.37z"/>
</g>
</svg>
